<svg data-v-0dd9719b="" version="1.0" xmlns="http://www.w3.org/2000/svg" xmlns:xlink="http://www.w3.org/1999/xlink" width="100%" height="100%" viewBox="0 0 340.000000 250.000000" preserveAspectRatio="xMidYMid meet" color-interpolation-filters="sRGB" style="margin: auto;"> <rect data-v-0dd9719b="" x="0" y="0" width="100%" height="100%" fill="#fff" fill-opacity="1" class="background"></rect> <rect data-v-0dd9719b="" x="0" y="0" width="100%" height="100%" fill="url(#watermark)" fill-opacity="1" class="watermarklayer"></rect> <g data-v-0dd9719b="" fill="#3699ea" class="icon-text-wrapper icon-svg-group iconsvg" transform="translate(48.48500061035156,96.67753791814367)"><g class="iconsvg-imagesvg" transform="translate(0,0)"><g><rect fill="#3699ea" fill-opacity="0" stroke-width="2" x="0" y="0" width="60" height="56.644921310763486" class="image-rect"></rect> <svg x="0" y="0" width="60" height="56.644921310763486" filtersec="colorsb977981408" class="image-svg-svg primary" style="overflow: visible;"><svg xmlns="http://www.w3.org/2000/svg" viewBox="-0.003525275969877839 -0.0038033658638596535 264.3553466796875 249.5738983154297"><g><g fill="#3699ea"><path d="M88.26 14.26a19 19 0 0 0 18.69 5.47l65.67-17a1.38 1.38 0 0 0-.37-2.73L87.36 1a5 5 0 0 0-3.63 8.44zM204.69 14.78a10.81 10.81 0 0 0-14-7l-65.62 23.58a5.34 5.34 0 0 0-.92 9.62l98.48 58.41a4.39 4.39 0 0 0 6.43-5.06zM103 177.28a6.6 6.6 0 0 0 9.88 5.69l99.32-57.07.09-.05a6.62 6.62 0 0 0 .08-11.44L112.1 54.94a6.42 6.42 0 0 0-9.7 5.55zM263.73 136.83a5.62 5.62 0 0 0-5.94-8.11 18.67 18.67 0 0 0-14.57 12.6l-27.67 85.05a.92.92 0 0 0 1.69.7zM258.31 113.62a4.34 4.34 0 0 0 4.7-6.3L217.6 22.4a.76.76 0 0 0-1.39.63L246 103.09a16.74 16.74 0 0 0 12.31 10.53zM75.55 180.29a5.87 5.87 0 0 0 9.24-4.84l-.53-112.18A5.5 5.5 0 0 0 75.34 59L3.2 116.43A8.46 8.46 0 0 0 3.62 130zM2.32 99.68a1.64 1.64 0 0 0 2.53 2l66.77-62a11.35 11.35 0 0 0 .6-16l-7.49-8.08A8.45 8.45 0 0 0 51.25 17zM107.85 219.33a15.23 15.23 0 0 0-17.45 5.08l-10.09 13.38a5.83 5.83 0 0 0 4.51 9.35l93.49 2.43a1.9 1.9 0 0 0 .71-3.67zM226.49 147.65a4.73 4.73 0 0 0-6.94-5.3l-95.85 55.31a5.83 5.83 0 0 0 .5 10.36l66.92 30.4a9.55 9.55 0 0 0 13.2-6.28zM74.21 215.48a11.75 11.75 0 0 0-2.06-16.19L6 146.19a2.07 2.07 0 0 0-3.08 2.67l47.64 80.84a7.54 7.54 0 0 0 12.54.68z"></path></g></g></svg></svg> <!----></g></g> <g transform="translate(67,15.957462310791016)"><g data-gra="path-name" fill-rule="" class="tp-name iconsvg-namesvg"><g transform="scale(1)"><g><path d="M13.37 0.31Q9.88 0.31 7.27-1.2 4.65-2.7 3.25-5.51 1.85-8.31 1.85-12.07L1.85-12.07Q1.85-15.84 3.25-18.62 4.65-21.41 7.27-22.91 9.88-24.42 13.37-24.42L13.37-24.42Q15.63-24.42 17.61-23.75 19.6-23.09 21.14-21.82L21.14-21.82Q21.58-21.48 21.75-21.1 21.92-20.73 21.92-20.18L21.92-20.18Q21.92-19.43 21.51-18.91 21.1-18.4 20.52-18.4L20.52-18.4Q19.84-18.4 19.12-18.88L19.12-18.88Q17.65-19.97 16.38-20.4 15.12-20.83 13.58-20.83L13.58-20.83Q10.02-20.83 8.19-18.61 6.36-16.38 6.36-12.07L6.36-12.07Q6.36-7.73 8.19-5.51 10.02-3.28 13.58-3.28L13.58-3.28Q15.05-3.28 16.3-3.73 17.55-4.17 19.12-5.23L19.12-5.23Q19.46-5.44 19.8-5.57 20.14-5.71 20.52-5.71L20.52-5.71Q21.1-5.71 21.51-5.2 21.92-4.69 21.92-3.93L21.92-3.93Q21.92-3.42 21.75-3.03 21.58-2.63 21.14-2.29L21.14-2.29Q19.6-1.03 17.61-0.36 15.63 0.31 13.37 0.31L13.37 0.31ZM34.75-17.07Q35.64-17.13 36.15-16.69 36.66-16.25 36.66-15.36L36.66-15.36Q36.66-14.43 36.22-13.99 35.77-13.54 34.61-13.41L34.61-13.41 33.59-13.3Q31.57-13.1 30.63-11.94 29.69-10.77 29.69-9.03L29.69-9.03 29.69-1.85Q29.69-0.86 29.07-0.32 28.46 0.21 27.53 0.21L27.53 0.21Q26.61 0.21 26.01-0.32 25.41-0.86 25.41-1.85L25.41-1.85 25.41-15.08Q25.41-16.04 26.01-16.55 26.61-17.07 27.5-17.07L27.5-17.07Q28.39-17.07 28.93-16.57 29.48-16.07 29.48-15.15L29.48-15.15 29.48-13.78Q30.13-15.29 31.41-16.11 32.7-16.93 34.27-17.03L34.27-17.03 34.75-17.07ZM45.8 0.27Q43.23 0.27 41.3-0.79 39.37-1.85 38.31-3.83 37.24-5.81 37.24-8.45L37.24-8.45Q37.24-11.08 38.31-13.05 39.37-15.01 41.3-16.07 43.23-17.13 45.8-17.13L45.8-17.13Q48.36-17.13 50.29-16.07 52.22-15.01 53.27-13.05 54.31-11.08 54.31-8.45L54.31-8.45Q54.31-5.81 53.27-3.83 52.22-1.85 50.29-0.79 48.36 0.27 45.8 0.27L45.8 0.27ZM45.76-3.04Q47.85-3.04 48.94-4.41 50.04-5.78 50.04-8.45L50.04-8.45Q50.04-11.08 48.94-12.47 47.85-13.85 45.8-13.85L45.8-13.85Q43.74-13.85 42.63-12.47 41.52-11.08 41.52-8.45L41.52-8.45Q41.52-5.78 42.61-4.41 43.71-3.04 45.76-3.04L45.76-3.04ZM63.89 0.27Q60.16 0.27 57.87-1.2L57.87-1.2Q56.77-1.85 56.77-3.04L56.77-3.04Q56.77-3.73 57.15-4.16 57.53-4.58 58.07-4.58L58.07-4.58Q58.65-4.58 59.68-4.04L59.68-4.04Q60.78-3.52 61.68-3.25 62.59-2.98 63.99-2.98L63.99-2.98Q65.43-2.98 66.23-3.45 67.03-3.93 67.03-4.79L67.03-4.79Q67.03-5.37 66.71-5.71 66.38-6.05 65.55-6.34 64.71-6.63 63-7.01L63-7.01Q59.95-7.63 58.64-8.76 57.32-9.88 57.32-11.87L57.32-11.87Q57.32-13.37 58.21-14.59 59.1-15.8 60.66-16.47 62.21-17.13 64.2-17.13L64.2-17.13Q65.63-17.13 66.97-16.78 68.3-16.42 69.36-15.73L69.36-15.73Q70.45-15.05 70.45-13.92L70.45-13.92Q70.45-13.24 70.08-12.77 69.7-12.31 69.15-12.31L69.15-12.31Q68.78-12.31 68.42-12.47 68.06-12.62 67.51-12.93L67.51-12.93Q66.52-13.44 65.8-13.7 65.08-13.95 64.02-13.95L64.02-13.95Q62.76-13.95 62.02-13.44 61.29-12.93 61.29-12.04L61.29-12.04Q61.29-11.18 62.04-10.74 62.79-10.29 64.95-9.85L64.95-9.85Q67.24-9.37 68.54-8.76 69.84-8.14 70.4-7.22 70.97-6.29 70.97-4.86L70.97-4.86Q70.97-2.53 69.03-1.13 67.1 0.27 63.89 0.27L63.89 0.27ZM80.48 0.27Q76.75 0.27 74.46-1.2L74.46-1.2Q73.36-1.85 73.36-3.04L73.36-3.04Q73.36-3.73 73.74-4.16 74.11-4.58 74.66-4.58L74.66-4.58Q75.24-4.58 76.27-4.04L76.27-4.04Q77.36-3.52 78.27-3.25 79.18-2.98 80.58-2.98L80.58-2.98Q82.01-2.98 82.82-3.45 83.62-3.93 83.62-4.79L83.62-4.79Q83.62-5.37 83.3-5.71 82.97-6.05 82.13-6.34 81.3-6.63 79.59-7.01L79.59-7.01Q76.54-7.63 75.23-8.76 73.91-9.88 73.91-11.87L73.91-11.87Q73.91-13.37 74.8-14.59 75.69-15.8 77.24-16.47 78.8-17.13 80.78-17.13L80.78-17.13Q82.22-17.13 83.55-16.78 84.89-16.42 85.95-15.73L85.95-15.73Q87.04-15.05 87.04-13.92L87.04-13.92Q87.04-13.24 86.67-12.77 86.29-12.31 85.74-12.31L85.74-12.31Q85.37-12.31 85.01-12.47 84.65-12.62 84.1-12.93L84.1-12.93Q83.11-13.44 82.39-13.7 81.67-13.95 80.61-13.95L80.61-13.95Q79.35-13.95 78.61-13.44 77.88-12.93 77.88-12.04L77.88-12.04Q77.88-11.18 78.63-10.74 79.38-10.29 81.54-9.85L81.54-9.85Q83.83-9.37 85.13-8.76 86.43-8.14 86.99-7.22 87.55-6.29 87.55-4.86L87.55-4.86Q87.55-2.53 85.62-1.13 83.69 0.27 80.48 0.27L80.48 0.27ZM102.16 0.31Q98.67 0.31 96.05-1.2 93.44-2.7 92.03-5.51 90.63-8.31 90.63-12.07L90.63-12.07Q90.63-15.84 92.03-18.62 93.44-21.41 96.05-22.91 98.67-24.42 102.16-24.42L102.16-24.42Q104.42-24.42 106.4-23.75 108.38-23.09 109.92-21.82L109.92-21.82Q110.37-21.48 110.54-21.1 110.71-20.73 110.71-20.18L110.71-20.18Q110.71-19.43 110.3-18.91 109.89-18.4 109.31-18.4L109.31-18.4Q108.62-18.4 107.9-18.88L107.9-18.88Q106.43-19.97 105.17-20.4 103.9-20.83 102.36-20.83L102.36-20.83Q98.81-20.83 96.98-18.61 95.15-16.38 95.15-12.07L95.15-12.07Q95.15-7.73 96.98-5.51 98.81-3.28 102.36-3.28L102.36-3.28Q103.83-3.28 105.08-3.73 106.33-4.17 107.9-5.23L107.9-5.23Q108.25-5.44 108.59-5.57 108.93-5.71 109.31-5.71L109.31-5.71Q109.89-5.71 110.3-5.2 110.71-4.69 110.71-3.93L110.71-3.93Q110.71-3.42 110.54-3.03 110.37-2.63 109.92-2.29L109.92-2.29Q108.38-1.03 106.4-0.36 104.42 0.31 102.16 0.31L102.16 0.31ZM123.98-17.13Q129.86-17.13 129.86-10.26L129.86-10.26 129.86-1.85Q129.86-0.89 129.3-0.34 128.73 0.21 127.74 0.21L127.74 0.21Q126.75 0.21 126.17-0.34 125.59-0.89 125.59-1.85L125.59-1.85 125.59-10.26Q125.59-12.07 124.85-12.91 124.12-13.75 122.54-13.75L122.54-13.75Q120.7-13.75 119.58-12.59 118.47-11.42 118.47-9.47L118.47-9.47 118.47-1.85Q118.47-0.89 117.89-0.34 117.31 0.21 116.32 0.21L116.32 0.21Q115.33 0.21 114.76-0.34 114.2-0.89 114.2-1.85L114.2-1.85 114.2-22.3Q114.2-23.19 114.8-23.74 115.39-24.28 116.35-24.28L116.35-24.28Q117.31-24.28 117.89-23.77 118.47-23.26 118.47-22.37L118.47-22.37 118.47-14.4Q119.33-15.73 120.75-16.43 122.17-17.13 123.98-17.13L123.98-17.13ZM147.44-4.58Q148.02-4.58 148.38-4.14 148.74-3.69 148.74-2.94L148.74-2.94Q148.74-1.88 147.47-1.16L147.47-1.16Q146.31-0.51 144.84-0.12 143.37 0.27 142.04 0.27L142.04 0.27Q138 0.27 135.64-2.05 133.28-4.38 133.28-8.41L133.28-8.41Q133.28-10.98 134.31-12.96 135.33-14.95 137.2-16.04 139.06-17.13 141.42-17.13L141.42-17.13Q143.68-17.13 145.35-16.14 147.03-15.15 147.95-13.34 148.88-11.53 148.88-9.06L148.88-9.06Q148.88-7.59 147.58-7.59L147.58-7.59 137.49-7.59Q137.69-5.23 138.82-4.12 139.95-3.01 142.11-3.01L142.11-3.01Q143.2-3.01 144.04-3.28 144.88-3.56 145.94-4.04L145.94-4.04Q146.96-4.58 147.44-4.58L147.44-4.58ZM141.52-14.13Q139.78-14.13 138.74-13.03 137.69-11.94 137.49-9.88L137.49-9.88 145.22-9.88Q145.15-11.97 144.19-13.05 143.23-14.13 141.52-14.13L141.52-14.13ZM172.24-17.13Q174.97-17.13 176.43-15.51 177.88-13.89 177.88-10.26L177.88-10.26 177.88-1.85Q177.88-0.86 177.28-0.32 176.68 0.21 175.72 0.21L175.72 0.21Q174.8 0.21 174.2-0.32 173.6-0.86 173.6-1.85L173.6-1.85 173.6-10.26Q173.6-12.14 172.94-12.95 172.27-13.75 170.9-13.75L170.9-13.75Q169.23-13.75 168.23-12.6 167.24-11.46 167.24-9.47L167.24-9.47 167.24-1.85Q167.24-0.86 166.64-0.32 166.05 0.21 165.12 0.21L165.12 0.21Q164.2 0.21 163.58-0.32 162.97-0.86 162.97-1.85L162.97-1.85 162.97-10.26Q162.97-12.14 162.3-12.95 161.63-13.75 160.27-13.75L160.27-13.75Q158.59-13.75 157.62-12.6 156.64-11.46 156.64-9.47L156.64-9.47 156.64-1.85Q156.64-0.86 156.03-0.32 155.41 0.21 154.49 0.21L154.49 0.21Q153.56 0.21 152.96-0.32 152.37-0.86 152.37-1.85L152.37-1.85 152.37-15.08Q152.37-16.04 152.98-16.55 153.6-17.07 154.52-17.07L154.52-17.07Q155.41-17.07 155.97-16.57 156.54-16.07 156.54-15.15L156.54-15.15 156.54-14.33Q157.32-15.7 158.64-16.42 159.96-17.13 161.67-17.13L161.67-17.13Q165.43-17.13 166.7-13.99L166.7-13.99Q167.45-15.42 168.92-16.28 170.39-17.13 172.24-17.13L172.24-17.13Z" transform="translate(-1.850000023841858, 24.420000076293945)"></path></g> <!----> <!----> <!----> <!----> <!----> <!----> <!----></g></g> <!----></g></g><defs v-gra="od"></defs></svg>